<svg xmlns="http://www.w3.org/2000/svg" width="45" height="45" viewBox="0 0 45 45"><rect width="45" height="45" fill="none"/><g transform="translate(11.559 11.875)"><g transform="translate(10.025 5.042)"><path d="M240.883,126.523l-3.03-2.273v-4.629a.842.842,0,1,0-1.683,0v5.05a.84.84,0,0,0,.337.673l3.367,2.525a.842.842,0,0,0,1.01-1.347Z" transform="translate(-236.169 -118.779)" fill="#fff"/></g><g transform="translate(0)"><path d="M10.867,0A10.867,10.867,0,1,0,21.733,10.867,10.878,10.878,0,0,0,10.867,0Zm0,20.05a9.183,9.183,0,1,1,9.183-9.183A9.194,9.194,0,0,1,10.867,20.05Z" fill="#fff"/></g></g></svg>