<svg xmlns="http://www.w3.org/2000/svg" width="45" height="45" viewBox="0 0 45 45"><rect width="45" height="45" fill="none"/><g transform="translate(14 14)"><path d="M17.892,5.142a6.391,6.391,0,0,0-.407-2.122A4.481,4.481,0,0,0,14.926.461,6.408,6.408,0,0,0,12.8.055C11.868.01,11.571,0,9.2,0s-2.672.01-3.6.051A6.393,6.393,0,0,0,3.469.458,4.268,4.268,0,0,0,1.918,1.469,4.306,4.306,0,0,0,.91,3.017,6.408,6.408,0,0,0,.5,5.139C.459,6.075.449,6.373.449,8.747s.01,2.672.051,3.6a6.391,6.391,0,0,0,.407,2.122,4.48,4.48,0,0,0,2.559,2.559,6.409,6.409,0,0,0,2.122.407c.933.041,1.23.051,3.6.051s2.672-.01,3.6-.051a6.39,6.39,0,0,0,2.122-.407,4.474,4.474,0,0,0,2.559-2.559,6.413,6.413,0,0,0,.407-2.122c.041-.933.051-1.23.051-3.6s0-2.672-.044-3.6Zm-1.575,7.141a4.794,4.794,0,0,1-.3,1.623,2.9,2.9,0,0,1-1.661,1.661,4.811,4.811,0,0,1-1.623.3c-.923.041-1.2.051-3.533.051s-2.614-.01-3.533-.051a4.792,4.792,0,0,1-1.623-.3,2.691,2.691,0,0,1-1-.653,2.719,2.719,0,0,1-.653-1,4.812,4.812,0,0,1-.3-1.623c-.041-.923-.051-1.2-.051-3.533s.01-2.614.051-3.533a4.792,4.792,0,0,1,.3-1.623,2.659,2.659,0,0,1,.656-1,2.715,2.715,0,0,1,1-.653,4.814,4.814,0,0,1,1.623-.3c.923-.041,1.2-.051,3.533-.051s2.614.01,3.533.051a4.794,4.794,0,0,1,1.623.3,2.69,2.69,0,0,1,1,.653,2.719,2.719,0,0,1,.653,1,4.814,4.814,0,0,1,.3,1.623c.041.923.051,1.2.051,3.533s-.01,2.607-.051,3.53Zm0,0" transform="translate(-0.449 0)" fill="#fff"/><path d="M129.442,124.5a4.493,4.493,0,1,0,4.493,4.493A4.494,4.494,0,0,0,129.442,124.5Zm0,7.408a2.915,2.915,0,1,1,2.915-2.915A2.915,2.915,0,0,1,129.442,131.908Zm0,0" transform="translate(-120.695 -120.246)" fill="#fff"/><path d="M364.548,89.651A1.049,1.049,0,1,1,363.5,88.6,1.049,1.049,0,0,1,364.548,89.651Zm0,0" transform="translate(-350.08 -85.574)" fill="#fff"/></g></svg>