<svg xmlns="http://www.w3.org/2000/svg" width="45" height="45" viewBox="0 0 45 45"><g transform="translate(11 -16.534)"><g transform="translate(0 28.534)"><path d="M11.295,48.606c-.476-.412-.718-.646-3.262-2.809C3.2,41.683,0,38.966,0,35a6.158,6.158,0,0,1,6-6.464,5.975,5.975,0,0,1,5.294,3.574,5.975,5.975,0,0,1,5.294-3.574,6.158,6.158,0,0,1,6,6.464c0,3.967-3.2,6.685-8.033,10.8C12,47.97,11.792,48.175,11.295,48.606ZM6,29.858c-2.666,0-4.677,2.21-4.677,5.141,0,3.356,3.01,5.915,7.567,9.79.772.657,1.567,1.332,2.4,2.06.837-.728,1.632-1.4,2.4-2.06,4.557-3.875,7.567-6.435,7.567-9.79,0-2.931-2.011-5.141-4.677-5.141-2.407,0-4.1,2.158-4.657,4.147v0l-1.275,0h0C10.169,32.248,8.585,29.858,6,29.858Z" transform="translate(0 -28.534)" fill="#fff"/></g></g><rect width="45" height="45" fill="none"/></svg>