<svg xmlns="http://www.w3.org/2000/svg" width="45" height="45" viewBox="0 0 45 45"><g transform="translate(12 -61)"><g transform="translate(0 82.733)"><g transform="translate(0 0)"><path d="M20.7,236H.842a.842.842,0,0,0,0,1.683H20.7a.842.842,0,0,0,0-1.683Z" transform="translate(0 -236)" fill="#fff"/></g></g><g transform="translate(0 76)"><path d="M20.7,76H.842a.842.842,0,1,0,0,1.683H20.7A.842.842,0,1,0,20.7,76Z" transform="translate(0 -76)" fill="#fff"/></g><g transform="translate(0 89.466)"><g transform="translate(0 0)"><path d="M20.7,396H.842a.842.842,0,1,0,0,1.683H20.7a.842.842,0,1,0,0-1.683Z" transform="translate(0 -396)" fill="#fff"/></g></g></g><rect width="45" height="45" fill="none"/></svg>