<svg xmlns="http://www.w3.org/2000/svg" width="45" height="45" viewBox="0 0 45 45"><rect width="45" height="45" fill="none"/><g transform="translate(11.868 11.868)"><path d="M14.6,20.316a5.66,5.66,0,0,1-1.942-.347A20.707,20.707,0,0,1,5.14,15.176,20.706,20.706,0,0,1,.347,7.657,5.619,5.619,0,0,1,.061,4.895,5.762,5.762,0,0,1,3.022.677,5.657,5.657,0,0,1,5.731,0a.635.635,0,0,1,.621.5l1,4.65a.635.635,0,0,1-.172.582l-1.7,1.7a16.711,16.711,0,0,0,7.406,7.406l1.7-1.7a.635.635,0,0,1,.582-.172l4.65,1a.635.635,0,0,1,.5.621,5.657,5.657,0,0,1-.677,2.709,5.762,5.762,0,0,1-4.218,2.962,5.647,5.647,0,0,1-.82.06ZM5.224,1.3A4.448,4.448,0,0,0,1.541,7.223,19.256,19.256,0,0,0,13.093,18.775a4.448,4.448,0,0,0,5.926-3.683l-3.783-.811L13.458,16.06a.635.635,0,0,1-.719.126A17.976,17.976,0,0,1,4.13,7.577a.635.635,0,0,1,.126-.719L6.034,5.08Z" fill="#fff"/></g></svg>