<svg xmlns="http://www.w3.org/2000/svg" width="45" height="45" viewBox="0 0 45 45"><rect width="45" height="45" fill="none"/><g transform="translate(9.484 15.276)"><g transform="translate(0 0)"><path d="M25.141,122.834a11.31,11.31,0,0,0-2.519-2.914c-2.125-1.972-1.839-1.652.72-5.063,1.559-2.077,2.182-3.345,1.987-3.888-.186-.517-1.332-.381-1.332-.381l-3.812.022a.871.871,0,0,0-.493.087,1.074,1.074,0,0,0-.336.409,22.08,22.08,0,0,1-1.41,2.974c-1.7,2.884-2.378,3.036-2.656,2.857-.645-.417-.484-1.678-.484-2.572,0-2.8.423-3.961-.826-4.262a6.542,6.542,0,0,0-1.781-.178,8.235,8.235,0,0,0-3.165.323c-.434.212-.769.687-.564.713a1.71,1.71,0,0,1,1.126.566,3.673,3.673,0,0,1,.377,1.727s.225,3.29-.525,3.7c-.515.281-1.221-.292-2.735-2.909a24.4,24.4,0,0,1-1.362-2.822,1.126,1.126,0,0,0-.314-.423,1.581,1.581,0,0,0-.587-.236l-3.625.022s-.544.016-.744.252c-.178.211-.014.645-.014.645s2.838,6.639,6.05,9.986a8.707,8.707,0,0,0,6.293,2.867h1.516a1.278,1.278,0,0,0,.691-.3,1.1,1.1,0,0,0,.208-.666s-.03-2.034.915-2.334,2.126,1.966,3.393,2.837a2.4,2.4,0,0,0,1.685.514l3.388-.048S25.981,124.228,25.141,122.834Z" transform="translate(0 -109.924)" fill="#fff"/></g></g></svg>