<svg xmlns="http://www.w3.org/2000/svg" width="33" height="33" viewBox="0 0 33 33"><defs><style>.a{fill:#17191a;}.b{fill:none;}</style></defs><g transform="translate(10 10)"><g transform="translate(0)"><path class="a" d="M5.713,0H.5A.5.5,0,0,0,0,.5V5.713a.5.5,0,0,0,.5.5H5.713a.5.5,0,0,0,.5-.5V.5A.5.5,0,0,0,5.713,0Zm-.5,5.212H1V1h4.21Z"/></g><g transform="translate(7.317)"><path class="a" d="M151.713,0H146.5a.5.5,0,0,0-.5.5V5.713a.5.5,0,0,0,.5.5h5.212a.5.5,0,0,0,.5-.5V.5A.5.5,0,0,0,151.713,0Zm-.5,5.212H147V1h4.21Z" transform="translate(-146)"/></g><g transform="translate(0 7.317)"><path class="a" d="M5.713,146H.5a.5.5,0,0,0-.5.5v5.212a.5.5,0,0,0,.5.5H5.713a.5.5,0,0,0,.5-.5V146.5A.5.5,0,0,0,5.713,146Zm-.5,5.212H1V147h4.21Z" transform="translate(0 -146)"/></g><g transform="translate(7.317 7.317)"><path class="a" d="M151.713,146H146.5a.5.5,0,0,0-.5.5v5.212a.5.5,0,0,0,.5.5h5.212a.5.5,0,0,0,.5-.5V146.5A.5.5,0,0,0,151.713,146Zm-.5,5.212H147V147h4.21Z" transform="translate(-146 -146)"/></g></g><rect class="b" width="33" height="33"/></svg>