<svg xmlns="http://www.w3.org/2000/svg" width="33" height="33" viewBox="0 0 33 33"><defs><style>.a{fill:#17191a;}.b{fill:none;}</style></defs><g transform="translate(10 10)"><g transform="translate(0)"><path class="a" d="M5.882,0H.535A.535.535,0,0,0,0,.535V5.882a.535.535,0,0,0,.535.535H5.882a.535.535,0,0,0,.535-.535V.535A.535.535,0,0,0,5.882,0Z"/><path class="a" d="M152.167,0H146.82a.535.535,0,0,0-.535.535V5.882a.535.535,0,0,0,.535.535h5.347a.535.535,0,0,0,.535-.535V.535A.535.535,0,0,0,152.167,0Z" transform="translate(-138.799)"/><path class="a" d="M5.882,146.286H.535a.535.535,0,0,0-.535.535v5.347a.535.535,0,0,0,.535.535H5.882a.535.535,0,0,0,.535-.535v-5.347A.535.535,0,0,0,5.882,146.286Z" transform="translate(0 -138.8)"/><path class="a" d="M152.167,146.286H146.82a.535.535,0,0,0-.535.535v5.347a.535.535,0,0,0,.535.535h5.347a.535.535,0,0,0,.535-.535v-5.347A.535.535,0,0,0,152.167,146.286Z" transform="translate(-138.799 -138.8)"/></g></g><rect class="b" width="33" height="33"/></svg>