<svg xmlns="http://www.w3.org/2000/svg" width="33" height="33" viewBox="0 0 33 33"><defs><style>.a{fill:#17191a;}.b{fill:none;}</style></defs><path class="a" d="M15.288,9.949a.465.465,0,0,0-.42-.266H.464a.465.465,0,0,0-.359.76l5.537,6.715v6.192a.465.465,0,0,0,.671.416l3.111-1.542a.465.465,0,0,0,.258-.416l.006-4.651,5.537-6.716A.464.464,0,0,0,15.288,9.949ZM8.866,16.7a.465.465,0,0,0-.106.295l-.006,4.529L6.572,22.6v-5.61a.464.464,0,0,0-.106-.3L1.45,10.612H13.882Z" transform="translate(9 -0.683)"/><rect class="b" width="33" height="33"/></svg>