<svg xmlns="http://www.w3.org/2000/svg" width="33" height="33" viewBox="0 0 33 33"><defs><style>.a{fill:#17191a;}.b{fill:none;}</style></defs><g transform="translate(10 10)"><g transform="translate(0)"><path class="a" d="M6.6,0H3.387A.388.388,0,0,0,3,.387V3.6a.388.388,0,0,0,.387.387H6.6A.388.388,0,0,0,6.989,3.6V.387A.388.388,0,0,0,6.6,0Z" transform="translate(-3)"/></g><g transform="translate(0 4.879)"><path class="a" d="M6.6,126H3.387a.388.388,0,0,0-.387.387V129.6a.388.388,0,0,0,.387.387H6.6a.388.388,0,0,0,.387-.387v-3.214A.388.388,0,0,0,6.6,126Z" transform="translate(-3 -126)"/></g><g transform="translate(9.681 4.879)"><path class="a" d="M256.6,126h-8.028a.388.388,0,0,0-.387.387V129.6a.388.388,0,0,0,.387.387H256.6a.388.388,0,0,0,.387-.387v-3.214A.388.388,0,0,0,256.6,126Z" transform="translate(-253 -126)"/></g><g transform="translate(9.681 9.879)"><path class="a" d="M256.6,126h-8.028a.388.388,0,0,0-.387.387V129.6a.388.388,0,0,0,.387.387H256.6a.388.388,0,0,0,.387-.387v-3.214A.388.388,0,0,0,256.6,126Z" transform="translate(-253 -126)"/></g><g transform="translate(9.681 -0.121)"><path class="a" d="M256.569,126.116H248.54a.388.388,0,0,0-.387.387v3.215a.388.388,0,0,0,.387.387h8.028a.388.388,0,0,0,.387-.387V126.5A.388.388,0,0,0,256.569,126.116Z" transform="translate(-253 -126)"/></g><g transform="translate(0 9.914)"><path class="a" d="M6.6,256H3.387a.388.388,0,0,0-.387.387V259.6a.388.388,0,0,0,.387.387H6.6a.388.388,0,0,0,.387-.387v-3.214A.388.388,0,0,0,6.6,256Z" transform="translate(-3 -256)"/></g></g><rect class="b" width="33" height="33"/></svg>