<svg xmlns="http://www.w3.org/2000/svg" width="33" height="33" viewBox="0 0 33 33"><defs><style>.a{fill:none;}</style></defs><g transform="translate(-1347 -6)"><g transform="translate(1355.105 14.684)"><path d="M8.323,43.324c-.351-.3-.529-.476-2.4-2.07C2.355,38.223,0,36.221,0,33.3a4.537,4.537,0,0,1,4.421-4.763,4.4,4.4,0,0,1,3.9,2.634,4.4,4.4,0,0,1,3.9-2.634A4.537,4.537,0,0,1,16.645,33.3c0,2.923-2.355,4.926-5.919,7.957C8.843,42.855,8.689,43.007,8.323,43.324Zm-3.9-13.815A3.549,3.549,0,0,0,.975,33.3c0,2.473,2.218,4.359,5.576,7.214.569.484,1.154.982,1.772,1.518.617-.536,1.2-1.034,1.771-1.518,3.358-2.855,5.576-4.742,5.576-7.214a3.549,3.549,0,0,0-3.446-3.788c-1.774,0-3.024,1.59-3.431,3.056v0l-.939,0h0C7.493,31.271,6.326,29.509,4.421,29.509Z" transform="translate(0 -28.534)"/></g><rect class="a" width="33" height="33" transform="translate(1347 6)"/></g></svg>