<svg xmlns="http://www.w3.org/2000/svg" width="33" height="33" viewBox="0 0 33 33"><defs><style>.a{fill:none;}.b{fill:#17191a;}</style></defs><rect class="a" width="33" height="33"/><g transform="translate(9.637 -1.069)"><path class="b" d="M13.928,16.044a.389.389,0,0,0-.312-.263l-4.351-.618L7.307,11.226a.388.388,0,0,0-.346-.215h0a.386.386,0,0,0-.346.218L4.682,15.176l-4.351.647a.389.389,0,0,0-.312.263.382.382,0,0,0,.1.4l3.158,3.06-.73,4.334a.389.389,0,0,0,.381.452.367.367,0,0,0,.18-.046l3.885-2.058,3.9,2.035a.4.4,0,0,0,.177.043h0a.389.389,0,0,0,.386-.386.3.3,0,0,0-.011-.089l-.753-4.308,3.137-3.077A.379.379,0,0,0,13.928,16.044Zm-3.922,3.066a.382.382,0,0,0-.109.344l.656,3.759L7.17,21.445a.391.391,0,0,0-.361,0L3.437,23.232l.633-3.764a.386.386,0,0,0-.112-.341L1.221,16.47,5,15.909a.384.384,0,0,0,.289-.212l1.678-3.427,1.7,3.418a.393.393,0,0,0,.292.212l3.779.538Z" transform="translate(0 0)"/></g></svg>