<svg xmlns="http://www.w3.org/2000/svg" viewBox="0 0 33 33"><defs><style>.cls-1{fill:#17191a;}.cls-2{fill:none;}</style></defs><g id="Layer_2" data-name="Layer 2"><g id="Layer_1-2" data-name="Layer 1"><g id="Visible"><path class="cls-1" d="M25.81,16.28c-.14-.22-3.7-5.25-9.31-5.25-4.82,0-9.11,5-9.29,5.22a.39.39,0,0,0,0,.5C7.39,17,11.68,22,16.5,22s9.11-5,9.29-5.22A.36.36,0,0,0,25.81,16.28ZM16.5,21.19C12.64,21.19,9,17.51,8,16.5c.93-1,4.6-4.69,8.47-4.69,4.52,0,7.71,3.68,8.49,4.67C24.09,17.46,20.4,21.19,16.5,21.19Z"/><path class="cls-1" d="M16.5,13.37a3.13,3.13,0,1,0,3.13,3.13A3.13,3.13,0,0,0,16.5,13.37Zm0,5.48a2.35,2.35,0,1,1,2.35-2.35A2.36,2.36,0,0,1,16.5,18.85Z"/><rect class="cls-2" width="33" height="33"/></g></g></g></svg>