<svg xmlns="http://www.w3.org/2000/svg" width="33" height="33" viewBox="0 0 33 33"><g transform="translate(10 10)"><g transform="translate(0)"><path d="M6.6,0H3.387A.388.388,0,0,0,3,.387V3.6a.388.388,0,0,0,.387.387H6.6A.388.388,0,0,0,6.989,3.6V.387A.388.388,0,0,0,6.6,0ZM6.253,3.253H3.775V.775H6.253Z" transform="translate(-3)" fill="#fff"/></g><g transform="translate(4.841)"><path d="M131.6,0h-3.214A.388.388,0,0,0,128,.387V3.6a.388.388,0,0,0,.387.387H131.6a.388.388,0,0,0,.387-.387V.387A.388.388,0,0,0,131.6,0Zm-.349,3.253h-2.478V.775h2.478Z" transform="translate(-128)" fill="#fff"/></g><g transform="translate(0 4.879)"><path d="M6.6,126H3.387a.388.388,0,0,0-.387.387V129.6a.388.388,0,0,0,.387.387H6.6a.388.388,0,0,0,.387-.387v-3.214A.388.388,0,0,0,6.6,126Zm-.349,3.214H3.775v-2.44H6.253Z" transform="translate(-3 -126)" fill="#fff"/></g><g transform="translate(4.841 4.879)"><path d="M131.6,126h-3.214a.388.388,0,0,0-.387.387V129.6a.388.388,0,0,0,.387.387H131.6a.388.388,0,0,0,.387-.387v-3.214A.388.388,0,0,0,131.6,126Zm-.349,3.214h-2.478v-2.44h2.478Z" transform="translate(-128 -126)" fill="#fff"/></g><g transform="translate(9.681)"><path d="M256.6,0h-3.214A.388.388,0,0,0,253,.387V3.6a.388.388,0,0,0,.387.387H256.6a.388.388,0,0,0,.387-.387V.387A.388.388,0,0,0,256.6,0Zm-.349,3.253h-2.478V.775h2.478Z" transform="translate(-253)" fill="#fff"/></g><g transform="translate(9.681 4.879)"><path d="M256.6,126h-3.214a.388.388,0,0,0-.387.387V129.6a.388.388,0,0,0,.387.387H256.6a.388.388,0,0,0,.387-.387v-3.214A.388.388,0,0,0,256.6,126Zm-.349,3.214h-2.478v-2.44h2.478Z" transform="translate(-253 -126)" fill="#fff"/></g><g transform="translate(0 9.914)"><path d="M6.6,256H3.387a.388.388,0,0,0-.387.387V259.6a.388.388,0,0,0,.387.387H6.6a.388.388,0,0,0,.387-.387v-3.214A.388.388,0,0,0,6.6,256Zm-.349,3.253H3.775v-2.478H6.253Z" transform="translate(-3 -256)" fill="#fff"/></g><g transform="translate(4.841 9.914)"><path d="M131.6,256h-3.214a.388.388,0,0,0-.387.387V259.6a.388.388,0,0,0,.387.387H131.6a.388.388,0,0,0,.387-.387v-3.214A.388.388,0,0,0,131.6,256Zm-.349,3.253h-2.478v-2.478h2.478Z" transform="translate(-128 -256)" fill="#fff"/></g><g transform="translate(9.681 9.914)"><path d="M256.6,256h-3.214a.388.388,0,0,0-.387.387V259.6a.388.388,0,0,0,.387.387H256.6a.388.388,0,0,0,.387-.387v-3.214A.388.388,0,0,0,256.6,256Zm-.349,3.253h-2.478v-2.478h2.478Z" transform="translate(-253 -256)" fill="#fff"/></g></g><rect width="33" height="33" fill="none"/></svg>