<svg xmlns="http://www.w3.org/2000/svg" width="33" height="33" viewBox="0 0 33 33"><g transform="translate(10 10)"><g transform="translate(0)"><path d="M6.164,0H3.007a.4.4,0,0,0-.395.395V3.552a.4.4,0,0,0,.395.395H6.164a.4.4,0,0,0,.395-.395V.395A.4.4,0,0,0,6.164,0Z" transform="translate(-2.612)" fill="#fff"/><path d="M131.552,0h-3.157A.4.4,0,0,0,128,.395V3.552a.4.4,0,0,0,.395.395h3.157a.4.4,0,0,0,.395-.395V.395A.4.4,0,0,0,131.552,0Z" transform="translate(-123.264)" fill="#fff"/><path d="M6.164,125.388H3.007a.4.4,0,0,0-.395.395v3.157a.4.4,0,0,0,.395.395H6.164a.4.4,0,0,0,.395-.395v-3.157A.4.4,0,0,0,6.164,125.388Z" transform="translate(-2.612 -120.652)" fill="#fff"/><path d="M131.552,125.388h-3.157a.4.4,0,0,0-.395.395v3.157a.4.4,0,0,0,.395.395h3.157a.4.4,0,0,0,.395-.395v-3.157A.4.4,0,0,0,131.552,125.388Z" transform="translate(-123.264 -120.652)" fill="#fff"/><path d="M256.94,0h-3.157a.4.4,0,0,0-.395.395V3.552a.4.4,0,0,0,.395.395h3.157a.4.4,0,0,0,.395-.395V.395A.4.4,0,0,0,256.94,0Z" transform="translate(-243.917)" fill="#fff"/><path d="M256.94,125.388h-3.157a.4.4,0,0,0-.395.395v3.157a.4.4,0,0,0,.395.395h3.157a.4.4,0,0,0,.395-.395v-3.157A.4.4,0,0,0,256.94,125.388Z" transform="translate(-243.917 -120.652)" fill="#fff"/><path d="M6.164,256H3.007a.4.4,0,0,0-.395.395v3.157a.4.4,0,0,0,.395.395H6.164a.4.4,0,0,0,.395-.395v-3.157A.4.4,0,0,0,6.164,256Z" transform="translate(-2.612 -246.332)" fill="#fff"/><path d="M131.552,256h-3.157a.4.4,0,0,0-.395.395v3.157a.4.4,0,0,0,.395.395h3.157a.4.4,0,0,0,.395-.395v-3.157A.4.4,0,0,0,131.552,256Z" transform="translate(-123.264 -246.332)" fill="#fff"/><path d="M256.94,256h-3.157a.4.4,0,0,0-.395.395v3.157a.4.4,0,0,0,.395.395h3.157a.4.4,0,0,0,.395-.395v-3.157A.4.4,0,0,0,256.94,256Z" transform="translate(-243.917 -246.332)" fill="#fff"/></g></g><rect width="33" height="33" fill="none"/></svg>