<svg xmlns="http://www.w3.org/2000/svg" width="33" height="33" viewBox="0 0 33 33"><rect width="33" height="33" fill="none"/><g transform="translate(8.476 8.708)"><g transform="translate(7.351 3.697)"><path d="M239.626,124.458l-2.222-1.667V119.4a.617.617,0,1,0-1.235,0v3.7a.616.616,0,0,0,.247.494l2.469,1.852a.617.617,0,0,0,.741-.988Z" transform="translate(-236.169 -118.779)" fill="#fff"/></g><g transform="translate(0)"><path d="M7.969,0a7.969,7.969,0,1,0,7.969,7.969A7.977,7.977,0,0,0,7.969,0Zm0,14.7A6.734,6.734,0,1,1,14.7,7.969,6.743,6.743,0,0,1,7.969,14.7Z" fill="#fff"/></g></g></svg>