<svg xmlns="http://www.w3.org/2000/svg" width="33" height="33" viewBox="0 0 33 33"><g transform="translate(10 10)"><g transform="translate(0)"><path d="M6.6,0H3.387A.388.388,0,0,0,3,.387V3.6a.388.388,0,0,0,.387.387H6.6A.388.388,0,0,0,6.989,3.6V.387A.388.388,0,0,0,6.6,0ZM6.253,3.253H3.775V.775H6.253Z" transform="translate(-3)" fill="#fff"/></g><g transform="translate(0 4.879)"><path d="M6.6,126H3.387a.388.388,0,0,0-.387.387V129.6a.388.388,0,0,0,.387.387H6.6a.388.388,0,0,0,.387-.387v-3.214A.388.388,0,0,0,6.6,126Zm-.349,3.214H3.775v-2.44H6.253Z" transform="translate(-3 -126)" fill="#fff"/></g><g transform="translate(9.681 4.879)"><path d="M256.6,126h-8.028a.388.388,0,0,0-.387.387V129.6a.388.388,0,0,0,.387.387H256.6a.388.388,0,0,0,.387-.387v-3.214A.388.388,0,0,0,256.6,126Zm-.349,3.214h-7.292v-2.44h7.292Z" transform="translate(-253 -126)" fill="#fff"/></g><g transform="translate(9.681 9.879)"><path d="M256.6,126h-8.028a.388.388,0,0,0-.387.387V129.6a.388.388,0,0,0,.387.387H256.6a.388.388,0,0,0,.387-.387v-3.214A.388.388,0,0,0,256.6,126Zm-.349,3.214h-7.292v-2.44h7.292Z" transform="translate(-253 -126)" fill="#fff"/></g><g transform="translate(9.681 -0.121)"><path d="M256.569,126.116H248.54a.388.388,0,0,0-.387.387v3.215a.388.388,0,0,0,.387.387h8.028a.388.388,0,0,0,.387-.387V126.5A.388.388,0,0,0,256.569,126.116Zm-.349,3.215h-7.292V126.89h7.292Z" transform="translate(-253 -126)" fill="#fff"/></g><g transform="translate(0 9.914)"><path d="M6.6,256H3.387a.388.388,0,0,0-.387.387V259.6a.388.388,0,0,0,.387.387H6.6a.388.388,0,0,0,.387-.387v-3.214A.388.388,0,0,0,6.6,256Zm-.349,3.253H3.775v-2.478H6.253Z" transform="translate(-3 -256)" fill="#fff"/></g></g><rect width="33" height="33" fill="none"/></svg>