<svg xmlns="http://www.w3.org/2000/svg" width="33" height="33" viewBox="0 0 33 33"><rect width="33" height="33" fill="none"/><g transform="translate(10.255 10.381)"><path d="M13.006,3.7a4.6,4.6,0,0,0-.293-1.528A3.226,3.226,0,0,0,10.871.332,4.613,4.613,0,0,0,9.343.039C8.669.007,8.455,0,6.746,0s-1.924.007-2.6.037A4.6,4.6,0,0,0,2.623.33a3.072,3.072,0,0,0-1.117.728A3.1,3.1,0,0,0,.781,2.172,4.613,4.613,0,0,0,.488,3.7c-.032.674-.039.888-.039,2.6s.007,1.924.037,2.6A4.6,4.6,0,0,0,.778,10.42a3.225,3.225,0,0,0,1.842,1.842,4.614,4.614,0,0,0,1.528.293c.671.03.886.037,2.6.037s1.924-.007,2.6-.037a4.6,4.6,0,0,0,1.528-.293,3.221,3.221,0,0,0,1.842-1.842A4.617,4.617,0,0,0,13,8.892c.029-.672.037-.886.037-2.6s0-1.924-.032-2.6ZM11.872,8.843a3.451,3.451,0,0,1-.216,1.168,2.089,2.089,0,0,1-1.2,1.2,3.464,3.464,0,0,1-1.168.216c-.664.03-.863.037-2.543.037s-1.882-.007-2.544-.037a3.45,3.45,0,0,1-1.168-.216,1.938,1.938,0,0,1-.723-.47,1.958,1.958,0,0,1-.47-.723,3.464,3.464,0,0,1-.216-1.168C1.6,8.181,1.59,7.982,1.59,6.3S1.6,4.42,1.627,3.759A3.45,3.45,0,0,1,1.843,2.59a1.914,1.914,0,0,1,.472-.723,1.955,1.955,0,0,1,.723-.47,3.466,3.466,0,0,1,1.168-.216c.664-.029.863-.037,2.543-.037s1.882.007,2.544.037a3.451,3.451,0,0,1,1.168.216,1.936,1.936,0,0,1,.723.47,1.957,1.957,0,0,1,.47.723,3.465,3.465,0,0,1,.216,1.168c.03.664.037.863.037,2.543s-.007,1.877-.037,2.541Zm0,0" transform="translate(-0.449 0)" fill="#fff"/><path d="M128.184,124.5a3.235,3.235,0,1,0,3.235,3.235A3.235,3.235,0,0,0,128.184,124.5Zm0,5.333a2.1,2.1,0,1,1,2.1-2.1A2.1,2.1,0,0,1,128.184,129.833Zm0,0" transform="translate(-121.886 -121.438)" fill="#fff"/><path d="M363.96,89.357a.755.755,0,1,1-.755-.755A.755.755,0,0,1,363.96,89.357Zm0,0" transform="translate(-353.545 -86.422)" fill="#fff"/></g></svg>