<svg xmlns="http://www.w3.org/2000/svg" width="33" height="33" viewBox="0 0 33 33"><g transform="translate(8.105 8.684)"><path d="M8.323,43.324a23.174,23.174,0,0,1-2.4-2.07C2.355,38.223,0,36.221,0,33.3a4.537,4.537,0,0,1,4.421-4.763c2.815,0,3.722,2.634,3.9,2.634s1.007-2.634,3.9-2.634A4.537,4.537,0,0,1,16.645,33.3c0,2.923-2.355,4.926-5.919,7.957A23.087,23.087,0,0,1,8.323,43.324Zm-3.9-13.815A3.549,3.549,0,0,0,.975,33.3c0,2.473,2.218,4.359,5.576,7.214C7.12,41,8.1,42.029,8.323,42.029s1.2-1.034,1.771-1.518c3.358-2.855,5.576-4.742,5.576-7.214a3.549,3.549,0,0,0-3.446-3.788c-1.774,0-3.024,1.59-3.431,3.056v0l-.939,0h0C7.493,31.271,6.326,29.509,4.421,29.509Z" transform="translate(0 -28.534)" fill="#fff"/></g><rect width="33" height="33" fill="none"/></svg>