<svg xmlns="http://www.w3.org/2000/svg" width="33" height="33" viewBox="0 0 33 33"><rect width="33" height="33" fill="none"/><g transform="translate(8.703 8.703)"><path d="M10.708,14.9a4.151,4.151,0,0,1-1.424-.254A15.185,15.185,0,0,1,3.77,11.129,15.184,15.184,0,0,1,.255,5.615a4.121,4.121,0,0,1-.21-2.025A4.226,4.226,0,0,1,2.216.5,4.148,4.148,0,0,1,4.2,0a.466.466,0,0,1,.455.368l.731,3.41a.466.466,0,0,1-.126.427L4.014,5.453a12.255,12.255,0,0,0,5.431,5.431l1.249-1.249a.466.466,0,0,1,.427-.126l3.41.731a.466.466,0,0,1,.368.455,4.148,4.148,0,0,1-.5,1.986,4.226,4.226,0,0,1-3.093,2.172A4.141,4.141,0,0,1,10.708,14.9ZM3.831.951A3.262,3.262,0,0,0,1.13,5.3,14.121,14.121,0,0,0,9.6,13.769a3.262,3.262,0,0,0,4.346-2.7l-2.774-.594-1.3,1.3a.465.465,0,0,1-.527.092A13.182,13.182,0,0,1,3.029,5.557a.466.466,0,0,1,.092-.527l1.3-1.3Z" transform="translate(0 0)" fill="#fff"/></g></svg>