<svg xmlns="http://www.w3.org/2000/svg" width="1162.766" height="1162.906" viewBox="0 0 1162.766 1162.906"><defs><style>.a{fill:#fff;}</style></defs><g transform="translate(0 0)"><path class="a" d="M475.64,257.858l93.281,89.655V484.088L475.64,573.726H353.009l-93.281-89.638V347.5l93.281-89.638H475.64M489.67,223H338.978L224.87,332.664V498.938L338.978,608.584H489.67L603.779,498.938V332.664Z" transform="translate(167.058 165.669)"/><path class="a" d="M279.716,137.259l66.84,126.221c14.257,26.911,5.438,49.115-1.081,59.956-11.538,19.172-31.843,31.076-53,31.076a62.413,62.413,0,0,1-29.194-7.582L136.936,280.387c5.351-4.078,11.05-8.122,17.028-12.044a55.076,55.076,0,0,0,17.063-74.335A182.133,182.133,0,0,1,153.6,154.235a181.876,181.876,0,0,1,39.843,17.307A55.129,55.129,0,0,0,267.724,154.3c3.9-5.978,7.93-11.695,11.991-17.046M287.8,78c-21.089,17.08-38.71,41.08-49.255,57.22a20.287,20.287,0,0,1-27.346,6.309c-40.871-24.192-83.5-29.281-95.721-29.281-2.492,0-3.712.209-3.486.505h-.087c-1.638,0,.348,50.823,29.089,99.1a20.27,20.27,0,0,1-6.24,27.364c-16.122,10.58-40.087,28.253-57.1,49.394l169.376,89.167a97.028,97.028,0,0,0,45.437,11.59c67.015,0,121.289-73.464,84.9-142.2Z" transform="translate(57.694 57.947)"/><path class="a" d="M421.356,24.488h0m-24.732,34.98a172.036,172.036,0,0,1,16.017,39.756,55.059,55.059,0,0,0,64.7,40.209c5.734-1.2,12.793-2.51,20.549-3.486L455.831,272.661c-9.882,32.1-36.949,43.573-58.979,43.573s-48.976-11.416-58.911-43.416L295.536,136.1c7.773,1.046,14.832,2.335,20.566,3.486a55.094,55.094,0,0,0,64.592-40.244,171.916,171.916,0,0,1,15.93-39.791m0-59.468a216.424,216.424,0,0,0-49.69,90.544,20.305,20.305,0,0,1-19.625,15.3,20.915,20.915,0,0,1-4.131-.418,290.028,290.028,0,0,0-56.924-6.4,170.125,170.125,0,0,0-18.4.941l56.8,183.006c14.048,45.316,53.124,67.974,92.2,67.974s78.309-22.658,92.374-68.165L545.5,99.677a175.289,175.289,0,0,0-17.934-.889,288.308,288.308,0,0,0-57.394,6.536,20.032,20.032,0,0,1-4.166.436A20.288,20.288,0,0,1,446.4,90.492,216.441,216.441,0,0,0,396.555,0Z" transform="translate(184.13 0)"/><path class="a" d="M519.443,136.951c4.078,5.351,8.121,11.05,12.043,17.028a55.145,55.145,0,0,0,74.335,17.063,180.936,180.936,0,0,1,39.79-17.429,182.439,182.439,0,0,1-17.325,39.826,55.006,55.006,0,0,0,17.238,74.283c5.978,3.921,11.695,7.93,17.046,12.009L536.4,346.676a62.243,62.243,0,0,1-29.3,7.651c-21.142,0-41.446-11.887-52.984-31.006-6.536-10.806-15.355-32.976-1.186-59.9l66.51-126.466m-8.209-59.259L422.067,247.051c-36.2,68.758,18.091,142,85.019,142A97.023,97.023,0,0,0,552.7,377.351L721.76,287.765c-17.063-21.089-41.08-38.71-57.219-49.255a20.286,20.286,0,0,1-6.31-27.346c28.636-48.348,30.518-99.189,28.863-99.189h-.087c.3-.3-.889-.505-3.312-.505-12.078,0-54.832,5.229-95.756,29.507a20.235,20.235,0,0,1-27.346-6.24c-10.6-16.122-28.27-40.087-49.394-57.1Z" transform="translate(304.953 57.68)"/><path class="a" d="M135.947,296.126,272.7,338.252c32.07,9.883,43.573,36.9,43.573,58.893s-11.346,49.045-43.4,59L136.1,498.6c.889-6.675,2.074-13.56,3.486-20.549a55.059,55.059,0,0,0-40.244-64.593,172.567,172.567,0,0,1-39.982-15.948,172.81,172.81,0,0,1,39.86-16.087,55.076,55.076,0,0,0,40.209-64.766c-1.464-6.971-2.667-13.943-3.486-20.532M99.677,248.51c-2.841,27,1.743,56.453,5.647,75.311a20.288,20.288,0,0,1-14.832,23.791A216.115,216.115,0,0,0,0,397.511,216.32,216.32,0,0,0,90.631,447.2a20.3,20.3,0,0,1,14.884,23.756c-3.922,18.876-8.366,48.331-5.455,75.329l183.128-56.871c90.631-28.165,90.527-156.548-.209-184.487Z" transform="translate(0 184.621)"/><path class="a" d="M292.761,445.738c21.142,0,41.429,11.87,52.984,31.007,6.519,10.806,15.355,32.958,1.185,59.886L280.387,663.01c-4.078-5.333-8.1-11.051-12.026-17.011a55.145,55.145,0,0,0-74.335-17.045,182.192,182.192,0,0,1-39.791,17.429,182.083,182.083,0,0,1,17.325-39.826,55.024,55.024,0,0,0-17.237-74.283c-5.978-3.922-11.7-7.948-17.063-12.009l126.187-66.858a62.3,62.3,0,0,1,29.316-7.634h0m0-34.858a96.938,96.938,0,0,0-45.7,11.66L78,512.178c17.08,21.089,41.08,38.71,57.22,49.255a20.269,20.269,0,0,1,6.309,27.346c-28.671,48.331-30.414,99.154-28.828,99.154h0c-.3.3.889.506,3.312.506,12.078,0,54.832-5.229,95.755-29.525a20.288,20.288,0,0,1,27.364,6.257c10.579,16.105,28.253,40.088,49.394,57.1l89.255-169.394c36.218-68.775-18.091-142.012-85-141.995Z" transform="translate(57.947 305.247)"/><path class="a" d="M680.686,295.553c-.907,6.658-2.074,13.543-3.486,20.549a55.094,55.094,0,0,0,40.366,64.592,172.015,172.015,0,0,1,39.879,16A172.537,172.537,0,0,1,717.6,412.8a55.077,55.077,0,0,0-40.208,64.68c1.482,6.972,2.667,13.944,3.59,20.549L544.129,455.884c-32.053-9.864-43.573-36.88-43.573-58.875s11.364-49.046,43.4-59L680.7,295.553m36.06-47.7L533.6,304.721c-90.632,28.148-90.511,156.548.225,184.488L717.1,545.643c2.841-27-1.744-56.452-5.63-75.311A20.27,20.27,0,0,1,726.3,446.542a216.5,216.5,0,0,0,90.492-49.917,216.482,216.482,0,0,0-90.631-49.69,20.269,20.269,0,0,1-14.884-23.756c3.9-18.876,8.348-48.331,5.455-75.329Z" transform="translate(345.976 184.13)"/><path class="a" d="M397.145,500.72c21.978,0,48.993,11.4,58.928,43.417l42.387,136.609c-7.756-1.046-14.815-2.336-20.549-3.486a56.443,56.443,0,0,0-11.207-1.15,55.146,55.146,0,0,0-53.4,41.535,172.082,172.082,0,0,1-15.93,39.807,172.367,172.367,0,0,1-16.018-39.773A55.145,55.145,0,0,0,328,676.285a56.492,56.492,0,0,0-11.346,1.167c-5.734,1.22-12.793,2.527-20.548,3.591l42.143-136.767c9.883-32.121,36.95-43.572,58.962-43.572m0-34.859c-39.145,0-78.309,22.659-92.373,68.148L248.51,717.12a170.141,170.141,0,0,0,17.934.89,289.688,289.688,0,0,0,57.377-6.519,20.236,20.236,0,0,1,23.791,14.832,216.594,216.594,0,0,0,49.9,90.527,216.431,216.431,0,0,0,49.621-90.632,20.3,20.3,0,0,1,19.625-15.32,19.741,19.741,0,0,1,4.128.436,290.011,290.011,0,0,0,56.909,6.379,174.825,174.825,0,0,0,18.423-.924l-56.8-183.006c-14.065-45.316-53.124-67.974-92.218-67.974Z" transform="translate(184.621 346.056)"/><path class="a" d="M507.372,445.441a62.094,62.094,0,0,1,29.228,7.581L662.96,519.566c-5.351,4.078-11.05,8.122-17.028,12.043a55.024,55.024,0,0,0-17.064,74.335A181.856,181.856,0,0,1,646.3,645.7a181.665,181.665,0,0,1-39.825-17.289,55.163,55.163,0,0,0-74.3,17.237c-3.9,5.978-7.93,11.695-11.991,17.045l-66.84-126.221c-14.257-26.928-5.438-49.116,1.1-59.956,11.538-19.172,31.843-31.076,53-31.076m0-34.859c-67.015,0-121.307,73.446-84.9,142.2l89.569,169.15c21.089-17.081,38.709-41.081,49.254-57.237a20.2,20.2,0,0,1,16.958-9.151,20.463,20.463,0,0,1,10.458,2.841c40.854,24.209,83.5,29.3,95.72,29.3,2.492,0,3.713-.209,3.486-.523h.1c1.638,0-.349-50.823-29.107-99.1a20.289,20.289,0,0,1,6.239-27.364c16.123-10.6,40.088-28.27,57.117-49.394L553.018,422.121A97,97,0,0,0,507.6,410.53Z" transform="translate(305.226 304.987)"/></g></svg>