<svg xmlns="http://www.w3.org/2000/svg" width="100" height="100" viewBox="0 0 100 100"><defs><style>.a{fill:#fff;}.b{fill:none;}</style></defs><g transform="translate(17 17)"><g transform="translate(0 0)"><path class="a" d="M238.963,224.959,244.205,230v7.675l-5.242,5.038h-6.892l-5.242-5.038V230l5.242-5.038h6.892m.788-1.959h-8.469l-6.413,6.163v9.344l6.413,6.162h8.469l6.413-6.162v-9.344Z" transform="translate(-202.844 -201.157)"/><path class="a" d="M89.015,81.33l3.756,7.093a3.314,3.314,0,0,1-.061,3.369,3.4,3.4,0,0,1-4.619,1.32l-7.1-3.74c.3-.229.621-.456.957-.677a3.1,3.1,0,0,0,.959-4.178,10.236,10.236,0,0,1-.979-2.235,10.221,10.221,0,0,1,2.239.973,3.1,3.1,0,0,0,4.175-.969c.219-.336.446-.657.674-.958M89.47,78A14.47,14.47,0,0,0,86.7,81.216a1.14,1.14,0,0,1-1.537.355,12.052,12.052,0,0,0-5.379-1.646c-.14,0-.209.012-.2.028h0a11.033,11.033,0,0,0,1.635,5.569,1.139,1.139,0,0,1-.351,1.538,14.414,14.414,0,0,0-3.209,2.776l9.519,5.011a5.408,5.408,0,0,0,7.325-7.34Z" transform="translate(-70.053 -70.36)"/><path class="a" d="M257.6,1.376h0m-1.39,1.966a9.668,9.668,0,0,1,.9,2.234,3.094,3.094,0,0,0,3.636,2.26c.322-.068.719-.141,1.155-.2l-2.364,7.683a3.467,3.467,0,0,1-6.625.009L250.53,7.649c.437.059.834.131,1.156.2a3.1,3.1,0,0,0,3.63-2.262,9.662,9.662,0,0,1,.9-2.236m0-3.342a12.162,12.162,0,0,0-2.793,5.088,1.141,1.141,0,0,1-1.1.86,1.175,1.175,0,0,1-.232-.024,16.3,16.3,0,0,0-3.2-.359,9.561,9.561,0,0,0-1.034.053l3.192,10.285a5.429,5.429,0,0,0,10.373-.011l3.163-10.3a9.851,9.851,0,0,0-1.008-.05,16.2,16.2,0,0,0-3.225.367,1.126,1.126,0,0,1-.234.024,1.14,1.14,0,0,1-1.1-.858A12.164,12.164,0,0,0,256.207,0Z" transform="translate(-223.573 0)"/><path class="a" d="M416.608,80.973c.229.3.456.621.677.957a3.1,3.1,0,0,0,4.178.959,10.168,10.168,0,0,1,2.236-.979,10.255,10.255,0,0,1-.974,2.238,3.091,3.091,0,0,0,.969,4.175c.336.22.657.446.958.675l-7.091,3.762a3.4,3.4,0,0,1-4.624-1.313,3.314,3.314,0,0,1-.067-3.367l3.738-7.107m-.461-3.33-5.011,9.518a5.408,5.408,0,0,0,7.341,7.323l9.5-5.035a14.448,14.448,0,0,0-3.216-2.768,1.14,1.14,0,0,1-.355-1.537,11.021,11.021,0,0,0,1.622-5.574h0c.017-.017-.05-.028-.186-.028a12.1,12.1,0,0,0-5.381,1.658,1.137,1.137,0,0,1-1.537-.351,14.465,14.465,0,0,0-2.776-3.209Z" transform="translate(-370.278 -70.035)"/><path class="a" d="M7.64,251.186l7.685,2.367a3.467,3.467,0,0,1,.01,6.625l-7.686,2.386c.05-.375.117-.762.2-1.155a3.094,3.094,0,0,0-2.262-3.63,9.7,9.7,0,0,1-2.247-.9,9.711,9.711,0,0,1,2.24-.9,3.1,3.1,0,0,0,2.26-3.64c-.082-.392-.15-.784-.2-1.154M5.6,248.51a14.562,14.562,0,0,0,.317,4.232,1.14,1.14,0,0,1-.834,1.337A12.145,12.145,0,0,0,0,256.884a12.157,12.157,0,0,0,5.093,2.793,1.141,1.141,0,0,1,.836,1.335,14.435,14.435,0,0,0-.307,4.233l10.292-3.2a5.427,5.427,0,0,0-.012-10.368Z" transform="translate(0 -224.169)"/><path class="a" d="M90.069,412.839a3.53,3.53,0,0,1,2.978,1.743,3.314,3.314,0,0,1,.067,3.366l-3.74,7.1c-.229-.3-.455-.621-.676-.956a3.1,3.1,0,0,0-4.178-.958,10.236,10.236,0,0,1-2.236.979,10.234,10.234,0,0,1,.974-2.238,3.092,3.092,0,0,0-.969-4.175c-.336-.22-.657-.447-.959-.675l7.092-3.757a3.5,3.5,0,0,1,1.648-.429h0m0-1.959a5.448,5.448,0,0,0-2.568.655L78,416.573a14.471,14.471,0,0,0,3.216,2.768,1.139,1.139,0,0,1,.355,1.537,11.023,11.023,0,0,0-1.62,5.572h0c-.017.017.05.028.186.028a12.094,12.094,0,0,0,5.381-1.659,1.14,1.14,0,0,1,1.538.352,14.435,14.435,0,0,0,2.776,3.209l5.016-9.52a5.447,5.447,0,0,0-4.777-7.98Z" transform="translate(-70.36 -370.635)"/><path class="a" d="M477.784,250.531c-.051.374-.117.761-.2,1.155a3.1,3.1,0,0,0,2.268,3.63,9.667,9.667,0,0,1,2.241.9,9.7,9.7,0,0,1-2.239.905,3.1,3.1,0,0,0-2.26,3.635c.083.392.15.784.2,1.155l-7.691-2.368a3.466,3.466,0,0,1-.01-6.624l7.685-2.386m2.027-2.681-10.293,3.2a5.427,5.427,0,0,0,.013,10.368l10.3,3.172a14.6,14.6,0,0,0-.316-4.232,1.139,1.139,0,0,1,.834-1.337,12.167,12.167,0,0,0,5.086-2.805,12.166,12.166,0,0,0-5.093-2.793,1.139,1.139,0,0,1-.836-1.335,14.5,14.5,0,0,0,.307-4.233Z" transform="translate(-420.087 -223.573)"/><path class="a" d="M256.863,467.772a3.374,3.374,0,0,1,3.312,2.44l2.382,7.677c-.436-.059-.833-.131-1.155-.2a3.175,3.175,0,0,0-.63-.065,3.1,3.1,0,0,0-3,2.334,9.671,9.671,0,0,1-.9,2.237,9.687,9.687,0,0,1-.9-2.235,3.1,3.1,0,0,0-3-2.326,3.174,3.174,0,0,0-.638.066c-.322.069-.719.142-1.155.2l2.368-7.686a3.374,3.374,0,0,1,3.314-2.449m0-1.959a5.329,5.329,0,0,0-5.191,3.83l-3.166,10.292a9.567,9.567,0,0,0,1.008.05,16.28,16.28,0,0,0,3.224-.366,1.137,1.137,0,0,1,1.337.834,12.173,12.173,0,0,0,2.8,5.087,12.163,12.163,0,0,0,2.789-5.093,1.141,1.141,0,0,1,1.1-.861,1.111,1.111,0,0,1,.232.024,16.3,16.3,0,0,0,3.2.359,9.825,9.825,0,0,0,1.035-.052l-3.192-10.285a5.323,5.323,0,0,0-5.182-3.82Z" transform="translate(-224.169 -420.184)"/><path class="a" d="M416.276,412.492a3.49,3.49,0,0,1,1.643.426l7.1,3.74c-.3.229-.621.456-.957.677a3.092,3.092,0,0,0-.959,4.178,10.223,10.223,0,0,1,.979,2.234,10.208,10.208,0,0,1-2.238-.972,3.1,3.1,0,0,0-4.176.969c-.219.336-.446.657-.674.958l-3.756-7.093a3.31,3.31,0,0,1,.062-3.369,3.528,3.528,0,0,1,2.979-1.746m0-1.959a5.448,5.448,0,0,0-4.771,7.992l5.034,9.506a14.453,14.453,0,0,0,2.768-3.217,1.135,1.135,0,0,1,.953-.514,1.15,1.15,0,0,1,.588.16,12.041,12.041,0,0,0,5.379,1.647c.14,0,.209-.012.2-.029h.006a11.028,11.028,0,0,0-1.636-5.569,1.14,1.14,0,0,1,.351-1.538,14.489,14.489,0,0,0,3.21-2.776l-9.516-5.012a5.451,5.451,0,0,0-2.553-.651Z" transform="translate(-370.609 -370.319)"/></g></g><rect class="b" width="100" height="100"/></svg>